<?xml version="1.0" encoding="UTF-8" standalone="no"?>
<!-- Created with Inkscape (http://www.inkscape.org/) -->

<svg
   width="512mm"
   height="512mm"
   viewBox="0 0 512 512"
   version="1.1"
   id="svg5"
   inkscape:version="1.2.1 (9c6d41e410, 2022-07-14)"
   sodipodi:docname="gluttony_simple.svg"
   inkscape:export-filename="gluttony_simple.png"
   inkscape:export-xdpi="96"
   inkscape:export-ydpi="96"
   xmlns:inkscape="http://www.inkscape.org/namespaces/inkscape"
   xmlns:sodipodi="http://sodipodi.sourceforge.net/DTD/sodipodi-0.dtd"
   xmlns="http://www.w3.org/2000/svg"
   xmlns:svg="http://www.w3.org/2000/svg">
  <sodipodi:namedview
     id="namedview7"
     pagecolor="#952bd4"
     bordercolor="#eeeeee"
     borderopacity="1"
     inkscape:showpageshadow="0"
     inkscape:pageopacity="1"
     inkscape:pagecheckerboard="0"
     inkscape:deskcolor="#505050"
     inkscape:document-units="mm"
     showgrid="true"
     showguides="true"
     inkscape:zoom="0.2287265"
     inkscape:cx="476.55169"
     inkscape:cy="1009.9398"
     inkscape:window-width="2560"
     inkscape:window-height="1377"
     inkscape:window-x="2552"
     inkscape:window-y="844"
     inkscape:window-maximized="1"
     inkscape:current-layer="layer1" />
  <defs
     id="defs2" />
  <g
     inkscape:label="Ebene 1"
     inkscape:groupmode="layer"
     id="layer1">
    <path
       id="rect111"
       style="fill:#ffffff;fill-opacity:1;stroke-width:0.938689"
       d="m 255.99988,123.74693 c -58.76066,0 -176.218905,4.72027 -176.218905,4.72027 0,0 -4.720273,84.9927 -4.720273,127.53273 0,42.54002 4.720273,127.53314 4.720273,127.53314 0,0 117.458245,4.72027 176.218905,4.72027 58.76064,0 176.21931,-4.72027 176.21931,-4.72027 0,0 4.71986,-84.99312 4.71986,-127.53314 0,-2.31781 -0.0194,-4.81065 -0.0459,-7.3599 a 44.91887,44.91887 0 0 1 -19.20388,-13.35994 44.91887,44.91887 0 0 1 -19.69985,5.22437 c 0.68912,9.18088 0.98462,15.49547 0.98462,15.49547 h 4.1e-4 c 0,0 -3.52858,78.08576 -16.31749,90.12505 -14.83884,13.96907 -126.65665,16.38903 -126.65665,16.38903 v -4e-4 c 0,0 -111.8178,-2.41956 -126.65665,-16.38863 -12.7889,-12.03929 -16.31707,-90.12505 -16.31707,-90.12505 h -4.1e-4 c 0,0 3.52817,-78.08577 16.31708,-90.12505 14.83884,-13.96906 126.65665,-16.38862 126.65665,-16.38862 v -4.1e-4 c 0,0 18.45306,0.41546 41.29293,1.81884 a 44.91887,44.91887 0 0 0 -0.2362,4.50846 44.91887,44.91887 0 0 1 5.98989,-22.40614 44.91887,44.91887 0 0 1 -4.69833,-9.13403 c -15.56525,-0.31868 -30.23062,-0.52605 -42.34829,-0.52605 z m 41.05673,32.06622 a 44.91887,44.91887 0 0 0 0.42564,5.94842 44.91887,44.91887 0 0 1 -0.42564,-5.94842 z m 0.77242,7.84043 a 44.91887,44.91887 0 0 0 0.86348,3.97022 44.91887,44.91887 0 0 1 -0.86348,-3.97022 z m 1.52938,6.10778 a 44.91887,44.91887 0 0 0 1.32693,3.55717 44.91887,44.91887 0 0 1 -1.32693,-3.55717 z m 2.26399,5.63944 a 44.91887,44.91887 0 0 0 1.85624,3.39904 44.91887,44.91887 0 0 1 -1.85624,-3.39904 z m 2.95917,5.22397 a 44.91887,44.91887 0 0 0 2.70833,3.61775 44.91887,44.91887 0 0 1 -2.70833,-3.61775 z m 3.60555,4.76296 a 44.91887,44.91887 0 0 0 4.21373,4.21373 44.91887,44.91887 0 0 1 -4.21373,-4.21373 z m 5.35894,5.11095 a 44.91887,44.91887 0 0 0 3.61775,2.70834 44.91887,44.91887 0 0 1 -3.61775,-2.70834 z m 5.44269,3.81126 a 44.91887,44.91887 0 0 0 3.39904,1.85623 44.91887,44.91887 0 0 1 -3.39904,-1.85623 z m 5.4813,2.7933 a 44.91887,44.91887 0 0 0 3.55718,1.32693 44.91887,44.91887 0 0 1 -3.55718,-1.32693 z m 5.69474,1.99284 a 44.91887,44.91887 0 0 0 3.97022,0.86347 44.91887,44.91887 0 0 1 -3.97022,-0.86347 z m 21.66991,0.5354 a 44.91887,44.91887 0 0 0 0.90007,5.73905 44.91887,44.91887 0 0 1 -0.90007,-5.73905 z m -15.80768,0.67484 a 44.91887,44.91887 0 0 0 5.94841,0.42564 44.91887,44.91887 0 0 1 -5.94841,-0.42564 z m 17.22405,6.9054 a 44.91887,44.91887 0 0 0 1.11431,3.72955 44.91887,44.91887 0 0 1 -1.11431,-3.72955 z m 2.00137,5.84597 a 44.91887,44.91887 0 0 0 1.45092,3.20512 44.91887,44.91887 0 0 1 -1.45092,-3.20512 z m 2.66281,5.3195 a 44.91887,44.91887 0 0 0 1.79159,2.85875 44.91887,44.91887 0 0 1 -1.79159,-2.85875 z m 3.29983,4.86744 a 44.91887,44.91887 0 0 0 2.11886,2.54369 44.91887,44.91887 0 0 1 -2.11886,-2.54369 z m 3.87916,4.36781 a 44.91887,44.91887 0 0 0 2.42904,2.22496 44.91887,44.91887 0 0 1 -2.42904,-2.22496 z m 4.40439,3.82142 a 44.91887,44.91887 0 0 0 2.71809,1.88673 44.91887,44.91887 0 0 1 -2.71809,-1.88673 z m 4.85037,3.21244 a 44.91887,44.91887 0 0 0 3.00185,1.53223 44.91887,44.91887 0 0 1 -3.00185,-1.53223 z m 5.22071,2.5571 a 44.91887,44.91887 0 0 0 3.31691,1.1631 44.91887,44.91887 0 0 1 -3.31691,-1.1631 z m 5.50042,1.86071 a 44.91887,44.91887 0 0 0 3.82508,0.78542 44.91887,44.91887 0 0 1 -3.82508,-0.78542 z m 5.69392,1.13667 a 44.91887,44.91887 0 0 0 5.79677,0.39352 44.91887,44.91887 0 0 1 -5.79677,-0.39352 z" />
    <path
       id="rect2432"
       style="opacity:1;fill:#ffffff;fill-opacity:1;stroke-width:0.208145"
       d="m 321.30036,266.05688 -7.28266,21.63192 91.45451,-25.23412 -2.62216,47.80169 -119.66887,34.47648 15.01408,-33.77502 -122.93173,34.83849 10.50761,-22.74265 -81.49127,21.18149 -8.605104,-64.1474 56.768554,-16.60902 -11.44048,21.3564 81.36303,-19.06145 -12.66891,22.72372 z"
       sodipodi:nodetypes="ccccccccccccccc" />
    <path
       id="rect2432-3"
       style="fill:#ffffff;fill-opacity:1;stroke-width:0.208145"
       d="m 211.13025,164.69471 -113.275969,21.39917 -0.77079,52.86372 86.853669,-21.66829 -7.73798,19.83603 77.829,-13.09325 -10.5077,22.74236 108.82646,-20.27795 -9.09905,22.39965 37.98983,-11.05652 a 44.91887,44.91887 0 0 1 -29.40302,-38.20815 44.91887,44.91887 0 0 1 -9.85927,1.10048 44.91887,44.91887 0 0 1 -31.81133,-13.32091 l -27.98177,5.62644 12.66883,-22.72365 -92.0634,16.73784 z" />
  </g>
</svg>
