<?xml version="1.0" encoding="UTF-8" standalone="no"?>
<!-- Created with Inkscape (http://www.inkscape.org/) -->

<svg
   width="512mm"
   height="512mm"
   viewBox="0 0 512 512"
   version="1.1"
   id="svg5"
   inkscape:version="1.2.1 (9c6d41e410, 2022-07-14)"
   sodipodi:docname="gluttony.svg"
   xmlns:inkscape="http://www.inkscape.org/namespaces/inkscape"
   xmlns:sodipodi="http://sodipodi.sourceforge.net/DTD/sodipodi-0.dtd"
   xmlns="http://www.w3.org/2000/svg"
   xmlns:svg="http://www.w3.org/2000/svg">
  <sodipodi:namedview
     id="namedview7"
     pagecolor="#952bd4"
     bordercolor="#eeeeee"
     borderopacity="1"
     inkscape:showpageshadow="0"
     inkscape:pageopacity="1"
     inkscape:pagecheckerboard="0"
     inkscape:deskcolor="#505050"
     inkscape:document-units="mm"
     showgrid="true"
     showguides="true"
     inkscape:zoom="0.32346812"
     inkscape:cx="703.31506"
     inkscape:cy="643.03091"
     inkscape:window-width="2560"
     inkscape:window-height="1377"
     inkscape:window-x="2552"
     inkscape:window-y="844"
     inkscape:window-maximized="1"
     inkscape:current-layer="layer1" />
  <defs
     id="defs2" />
  <g
     inkscape:label="Ebene 1"
     inkscape:groupmode="layer"
     id="layer1">
    <path
       id="rect111"
       style="stroke-width:1.19321"
       d="M 255.99988 87.887142 C 181.3065 87.887142 32.000114 93.887292 32.000114 93.887292 C 32.000114 93.887292 25.999963 201.92528 25.999963 255.99988 C 25.999963 310.07447 32.000114 418.11298 32.000114 418.11298 C 32.000114 418.11298 181.3065 424.11313 255.99988 424.11313 C 330.69325 424.11313 480.00016 418.11298 480.00016 418.11298 C 480.00016 418.11298 485.99979 310.07447 485.99979 255.99988 C 485.99979 253.0536 485.97508 249.88485 485.9414 246.64438 A 57.098394 57.098394 0 0 1 461.53049 229.66195 A 57.098394 57.098394 0 0 1 434.67321 236.41709 A 57.098394 57.098394 0 0 1 377.81983 184.3474 A 57.098394 57.098394 0 0 1 365.28726 185.74628 A 57.098394 57.098394 0 0 1 308.18894 128.64796 A 57.098394 57.098394 0 0 1 315.80295 100.1665 A 57.098394 57.098394 0 0 1 309.8307 88.555835 C 290.04498 88.150747 271.40322 87.887142 255.99988 87.887142 z " />
    <path
       id="path555"
       style="fill:#b3b3b3;stroke-width:0.951871"
       d="M 255.99988 120.60504 L 255.99988 120.60556 C 255.99988 120.60556 113.86326 123.68115 95.00092 141.43788 C 78.744354 156.74156 74.25955 255.99988 74.25955 255.99988 L 74.260067 255.99988 C 74.260067 255.99988 78.74487 355.25818 95.001436 370.56188 C 113.86378 388.31861 256.00039 391.3942 256.00039 391.3942 L 256.00039 391.39471 C 256.00039 391.39471 398.13701 388.31861 416.99935 370.56188 C 433.25592 355.25818 437.74124 255.99988 437.74124 255.99988 L 437.74072 255.99988 C 437.74072 255.99988 437.3651 247.97312 436.48912 236.30289 A 57.098394 57.098394 0 0 1 434.67321 236.41709 A 57.098394 57.098394 0 0 1 377.81983 184.3474 A 57.098394 57.098394 0 0 1 365.28726 185.74628 A 57.098394 57.098394 0 0 1 308.18894 128.64796 A 57.098394 57.098394 0 0 1 308.48918 122.91705 C 279.45637 121.13315 255.99988 120.60504 255.99988 120.60504 z " />
    <path
       id="rect2432"
       style="opacity:1;fill-opacity:0.476923;stroke-width:0.264583"
       d="m 339.00625,268.78372 -9.25731,27.4973 116.25193,-32.07622 -3.33314,60.76287 -152.11648,43.82461 19.08507,-42.93295 -156.26404,44.28477 13.3567,-28.9092 -103.587219,26.92474 -10.938335,-81.54064 72.161054,-21.11247 -14.5425,27.14707 103.4242,-24.22986 -16.10402,28.88514 z"
       sodipodi:nodetypes="ccccccccccccccc" />
    <path
       id="rect2432-3"
       style="fill-opacity:0.476923;stroke-width:0.264583"
       d="M 198.96408 139.93771 L 54.973905 167.13915 L 53.99412 234.3366 L 164.39772 206.79306 L 154.56163 232.00754 L 253.49357 215.36412 L 240.13676 244.27295 L 378.47096 218.49674 L 366.90474 246.96994 L 415.19533 232.9155 A 57.098394 57.098394 0 0 1 377.81983 184.3474 A 57.098394 57.098394 0 0 1 365.28726 185.74628 A 57.098394 57.098394 0 0 1 324.85046 168.81347 L 289.28157 175.96549 L 305.38549 147.08043 L 188.35956 168.35665 L 198.96408 139.93771 z " />
    <path
       id="path1574"
       style="fill:#4d4d4d;stroke-width:0.295215"
       d="m 773.81791,-24.730891 a 57.098394,57.098394 0 0 0 -57.09828,57.098278 57.098394,57.098394 0 0 0 9.6982,31.808931 57.098394,57.098394 0 0 0 -7.61405,28.48168 57.098394,57.098394 0 0 0 57.09827,57.098282 57.098394,57.098394 0 0 0 12.53283,-1.39889 57.098394,57.098394 0 0 0 56.8533,52.06943 57.098394,57.098394 0 0 0 26.85732,-6.75527 57.098394,57.098394 0 0 0 43.74263,20.454 A 57.098394,57.098394 0 0 0 972.9864,157.02682 57.098394,57.098394 0 0 0 915.88813,99.928538 57.098394,57.098394 0 0 0 902.89107,101.4384 57.098394,57.098394 0 0 0 920.65112,60.083932 57.098394,57.098394 0 0 0 863.55284,2.9852113 57.098394,57.098394 0 0 0 828.27373,15.20515 57.098394,57.098394 0 0 0 773.81791,-24.730891 Z" />
  </g>
</svg>
